<?xml version="1.0" encoding="iso-8859-1"?>
<!-- Uploaded to: SVG Repo, www.svgrepo.com, Generator: SVG Repo Mixer Tools -->
<svg height="800px" width="800px" version="1.1" id="Layer_1" xmlns="http://www.w3.org/2000/svg" xmlns:xlink="http://www.w3.org/1999/xlink" 
	 viewBox="0 0 512 512" xml:space="preserve">
<path style="fill:#981700;" d="M468.396,265.783c0,8.282-0.862,16.362-2.504,24.159l-10.94,69.474H246.986l-10.94-68.776
	c-1.742-8.012-2.654-16.329-2.654-24.857c0-76.83,31.503-81.819,74.998-79.968c13.239,0.565,27.59,1.765,42.503,1.765
	C414.798,187.578,468.396,165.565,468.396,265.783z"/>
<path style="fill:#7A1700;" d="M468.396,265.783c0,8.282-0.862,16.362-2.504,24.159l-10.94,69.474H246.986l-10.94-68.776
	c-0.706-3.246-1.268-6.546-1.696-9.886c20.618,11.665,44.425,18.33,69.786,18.33c66.086,0,121.639-45.197,137.604-106.445
	C458.334,201.906,468.396,222.374,468.396,265.783z"/>
<path style="fill:#FF4328;" d="M56.985,160.22v-52.762c0-3.029,2.45-5.484,5.47-5.484h61.081c3.021,0,5.47,2.456,5.47,5.484v47.278
	c0,3.029-2.45,5.484-5.47,5.484H56.985L56.985,160.22z"/>
<path style="fill:#97BAA8;" d="M80.277,449.912H19.692c-6.042,0-10.94-4.911-10.94-10.97V203.102
	c0-28.14,23.095-51.162,51.329-51.162h65.829c28.234,0,51.329,23.023,51.329,51.162v235.841c0,6.059-4.898,10.97-10.94,10.97
	L80.277,449.912L80.277,449.912z"/>
<path style="fill:#B1D7C5;" d="M177.24,333.821H8.752v-85.763H177.24V333.821z"/>
<path style="fill:#D1EE88;" d="M120.044,330.722h358.768v81.015c0,20.996-17.235,38.177-38.304,38.177H158.35
	c-21.065,0-38.306-17.18-38.306-38.177L120.044,330.722L120.044,330.722z"/>
<path style="fill:#7E9332;" d="M474.744,62.137c-22.012-0.773-44.281,7.186-61.082,23.892
	c-16.813,16.703-24.818,38.838-24.041,60.72c22.016,0.775,44.284-7.186,61.092-23.891
	C467.516,106.156,475.526,84.021,474.744,62.137z"/>
<path d="M503.248,321.946h-33.537l4.791-30.426c1.755-8.412,2.645-17.07,2.645-25.739c0-35.371-6.383-58.365-20.086-72.363
	c-14.359-14.666-34.225-16.644-51.765-16.644c-8.063,0-16.44,0.472-25.311,0.971c-7.236,0.408-14.664,0.821-22.222,0.992
	l-10.516-43.555c-1.137-4.711-5.867-7.603-10.566-6.465c-4.698,1.14-7.585,5.884-6.447,10.594l9.486,39.293
	c-6.074-0.208-12.066-0.529-17.922-0.859c-4.514-0.255-8.776-0.494-13.037-0.676c-4.721-0.201-8.616-0.294-12.256-0.294
	c-17.541,0-37.41,1.977-51.771,16.642c-13.709,13.998-20.094,36.993-20.094,72.365c0,8.933,0.942,17.838,2.8,26.472l4.724,29.693
	h-46.172V203.102c0-28.993-20.759-53.236-48.233-58.739v-36.906c0-7.851-6.38-14.238-14.222-14.238H62.455
	c-7.842,0-14.222,6.387-14.222,14.238v36.907C20.759,149.866,0,174.11,0,203.102v235.841c0,10.875,8.834,19.722,19.692,19.722
	h138.563c0.032,0,0.063,0.002,0.095,0.002h282.158c25.947,0,47.056-21.052,47.056-46.929v-72.24h15.684
	c4.833,0,8.752-3.929,8.752-8.775S508.081,321.946,503.248,321.946z M244.689,289.265c-0.025-0.162-0.056-0.324-0.091-0.485
	c-1.628-7.491-2.454-15.229-2.454-22.998c0-66.238,23.561-71.503,54.361-71.503c3.387,0,7.044,0.089,11.511,0.279
	c4.14,0.177,8.345,0.414,12.797,0.665c9.419,0.531,19.16,1.071,29.304,1.098c0.254,0.023,0.51,0.035,0.767,0.035
	c0.179,0,0.361-0.021,0.542-0.033c10.232-0.019,20.048-0.566,29.542-1.101c8.618-0.486,16.757-0.944,24.327-0.944
	c30.793,0,54.348,5.266,54.348,71.503c0,7.536-0.779,15.057-2.316,22.355c-0.031,0.147-0.058,0.294-0.081,0.442l-5.255,33.366
	H249.888L244.689,289.265z M120.254,110.724v32.463H65.737v-32.463H120.254z M17.504,438.943V203.102
	c0-23.385,19.1-42.41,42.577-42.41h65.829c23.477,0,42.577,19.025,42.577,42.41v118.844h-63.462c-4.834,0-8.752,3.929-8.752,8.775
	s3.918,8.775,8.752,8.775h6.267v72.24c0,11.133,3.915,21.367,10.435,29.423H19.692C18.486,441.16,17.504,440.166,17.504,438.943z
	 M470.06,411.738c0,16.225-13.256,29.425-29.552,29.425H158.35c-16.296,0-29.555-13.199-29.555-29.425v-72.24H470.06V411.738z
	 M157.325,372.225c0-4.846,3.918-8.775,8.752-8.775h111.335c4.833,0,8.752,3.929,8.752,8.775c0,4.846-3.919,8.775-8.752,8.775
	H166.077C161.243,381.001,157.325,377.072,157.325,372.225z M157.325,409.697c0-4.846,3.918-8.775,8.752-8.775h54.33
	c4.833,0,8.752,3.929,8.752,8.775s-3.919,8.775-8.752,8.775h-54.33C161.243,418.474,157.325,414.544,157.325,409.697z
	 M286.164,409.697c0,4.846-3.919,8.775-8.752,8.775h-1.71c-4.834,0-8.752-3.929-8.752-8.775s3.918-8.775,8.752-8.775h1.71
	C282.245,400.922,286.164,404.851,286.164,409.697z M413.796,372.225c0-4.846,3.918-8.775,8.752-8.775h1.706
	c4.834,0,8.752,3.929,8.752,8.775c0,4.846-3.918,8.775-8.752,8.775h-1.706C417.714,381.001,413.796,377.072,413.796,372.225z
	 M389.314,155.497c1.078,0.038,2.158,0.057,3.237,0.057c0.001,0,0,0,0.002,0c24.298,0,47.146-9.407,64.33-26.488
	c17.803-17.698,27.501-42.207,26.606-67.242c-0.164-4.59-3.849-8.273-8.439-8.434c-1.077-0.038-2.156-0.057-3.233-0.057
	c-24.305,0-47.15,9.407-64.325,26.487c-17.806,17.69-27.509,42.198-26.619,67.24C381.039,151.652,384.723,155.335,389.314,155.497z
	 M419.833,92.235c12.447-12.377,28.582-19.766,45.954-21.157c-1.443,17.093-8.946,33.347-21.244,45.572
	c-12.46,12.383-28.605,19.774-45.985,21.16C399.941,120.596,407.329,104.659,419.833,92.235z"/>
</svg>